<?xml version="1.0" standalone="no"?>
<!DOCTYPE svg PUBLIC "-//W3C//DTD SVG 20010904//EN"
 "http://www.w3.org/TR/2001/REC-SVG-20010904/DTD/svg10.dtd">
<svg version="1.0" xmlns="http://www.w3.org/2000/svg"
 width="500.000000pt" height="500.000000pt" viewBox="0 0 500.000000 500.000000"
 preserveAspectRatio="xMidYMid meet">

<g transform="translate(0.000000,500.000000) scale(0.100000,-0.100000)"
fill="#000000" stroke="none">
<path d="M1413 3245 c-124 -34 -244 -116 -317 -218 -110 -154 -116 -195 -116
-767 l0 -460 155 0 155 0 0 186 c0 173 1 186 18 179 101 -43 123 -48 222 -53
117 -5 191 9 286 54 30 14 56 24 57 23 1 -2 17 -34 35 -71 41 -82 101 -139
190 -181 67 -32 67 -32 270 -37 l204 -5 29 -33 c39 -44 39 -90 0 -134 l-29
-33 -331 -3 -331 -3 0 -149 0 -150 350 0 c318 0 355 2 404 19 112 39 203 127
247 238 19 46 23 78 24 153 0 86 -3 101 -32 162 -59 126 -170 213 -302 238
-29 5 -124 10 -210 10 -175 0 -192 5 -217 66 -12 29 -12 39 0 68 27 65 32 66
317 66 l256 0 18 -47 c59 -159 188 -291 338 -343 315 -111 636 54 743 380 15
48 18 105 22 448 l4 392 -156 0 -156 0 0 -347 c0 -192 -3 -365 -6 -386 -11
-64 -63 -138 -122 -174 -130 -77 -281 -37 -360 95 l-27 47 -3 383 -3 382 -154
0 -155 0 0 -259 0 -260 -277 -3 c-153 -2 -285 -7 -294 -11 -13 -6 -17 5 -27
70 -33 211 -190 393 -395 458 -91 29 -236 33 -324 10z m253 -310 c50 -20 115
-85 140 -140 49 -104 22 -229 -66 -308 -56 -51 -102 -69 -176 -70 -146 -2
-274 124 -274 268 0 187 202 321 376 250z"/>
</g>
</svg>
