<?xml version="1.0" standalone="no"?>
<!DOCTYPE svg PUBLIC "-//W3C//DTD SVG 20010904//EN"
 "http://www.w3.org/TR/2001/REC-SVG-20010904/DTD/svg10.dtd">
<svg version="1.0" xmlns="http://www.w3.org/2000/svg"
 width="742.000000pt" height="284.000000pt" viewBox="0 0 742.000000 284.000000"
 preserveAspectRatio="xMidYMid meet">

<g transform="translate(0.000000,284.000000) scale(0.100000,-0.100000)"
fill="#000000" stroke="none">
<path d="M1243 2326 c-207 -40 -380 -196 -449 -406 -16 -49 -18 -106 -22 -552
l-3 -498 155 0 156 0 0 186 c0 173 1 186 18 179 83 -34 140 -48 214 -52 105
-7 187 8 280 49 38 17 70 29 71 27 2 -2 14 -28 27 -58 29 -63 96 -136 160
-174 77 -45 147 -57 327 -57 177 0 205 -6 229 -51 23 -45 18 -87 -15 -120
l-29 -29 -331 0 -331 0 0 -155 0 -156 363 3 362 3 65 31 c318 151 316 596 -4
745 l-71 34 -201 5 c-219 5 -225 7 -250 66 -16 38 -9 71 24 107 l26 27 262 0
261 0 18 -47 c64 -172 218 -313 392 -358 73 -19 212 -19 283 0 192 51 341 196
406 395 15 48 18 105 22 448 l4 392 -156 0 -155 0 -3 -377 c-3 -368 -4 -379
-25 -419 -51 -96 -128 -143 -234 -144 -114 0 -207 65 -244 170 -12 35 -15 110
-15 406 l0 364 -155 0 -155 0 0 -260 0 -260 -263 0 c-144 0 -276 -4 -293 -9
l-30 -8 -12 76 c-50 317 -363 537 -679 477z m220 -324 c53 -24 107 -75 132
-128 28 -58 32 -161 7 -216 -114 -258 -486 -207 -519 71 -9 79 19 154 81 217
84 84 191 104 299 56z"/>
<path d="M4487 2233 c-4 -3 -7 -60 -7 -125 l0 -118 825 0 825 0 0 125 0 125
-818 0 c-450 0 -822 -3 -825 -7z"/>
<path d="M5775 1686 c-89 -39 -119 -162 -61 -251 21 -32 77 -55 134 -55 59 0
93 11 122 40 l22 22 -23 24 -22 23 -29 -24 c-82 -69 -187 17 -144 118 25 60
103 70 159 19 17 -15 20 -15 37 8 18 24 18 25 -1 46 -38 41 -136 56 -194 30z"/>
<path d="M4482 1538 l3 -153 38 -3 37 -3 0 50 0 51 50 0 c110 0 169 74 126
159 -21 40 -56 51 -162 51 l-95 0 3 -152z m176 80 c7 -7 12 -21 12 -33 0 -32
-20 -45 -67 -45 l-43 0 0 45 0 45 43 0 c24 0 48 -5 55 -12z"/>
<path d="M4812 1538 l3 -153 38 -3 37 -3 0 55 0 56 33 0 c41 0 62 -22 71 -72
7 -37 8 -38 48 -38 37 0 40 2 34 23 -3 12 -6 30 -6 40 0 11 -14 32 -31 48 -19
17 -25 29 -17 29 25 0 58 44 58 79 0 23 -9 41 -29 62 -29 28 -32 29 -135 29
l-107 0 3 -152z m186 64 c5 -35 -15 -52 -64 -52 l-44 0 0 41 0 40 53 -3 c46
-3 52 -6 55 -26z"/>
<path d="M5160 1535 l0 -155 40 0 40 0 0 155 0 155 -40 0 -40 0 0 -155z"/>
<path d="M5330 1534 l0 -155 38 3 37 3 5 92 5 92 59 -94 c58 -93 60 -95 97
-95 l39 0 0 155 0 155 -40 0 -39 0 -3 -90 -3 -90 -55 90 -55 90 -42 0 -43 0 0
-156z"/>
<path d="M6060 1535 l0 -155 125 0 125 0 0 30 0 30 -85 0 -85 0 0 35 0 35 65
0 65 0 0 30 0 30 -65 0 -65 0 0 30 0 30 85 0 85 0 0 30 0 30 -125 0 -125 0 0
-155z"/>
<path d="M6487 1579 c-23 -14 -47 -62 -47 -96 0 -46 34 -91 75 -99 93 -17 150
29 142 116 -7 61 -41 90 -105 90 -26 0 -55 -5 -65 -11z m103 -44 c19 -22 15
-87 -6 -102 -42 -31 -84 -3 -84 56 0 20 5 42 12 49 17 17 63 15 78 -3z"/>
<path d="M6730 1485 l0 -105 25 0 c23 0 25 4 25 40 l0 40 40 0 c33 0 40 3 40
20 0 17 -7 20 -40 20 -36 0 -40 3 -40 25 0 24 3 25 55 25 48 0 55 2 55 20 0
18 -7 20 -80 20 l-80 0 0 -105z"/>
<path d="M4509 1151 c-58 -58 -24 -120 89 -161 68 -25 84 -52 37 -64 -28 -7
-101 9 -110 24 -11 17 -24 11 -40 -20 -15 -29 -15 -30 16 -46 43 -22 128 -29
173 -14 44 14 66 44 66 88 0 42 -35 75 -103 98 -67 22 -81 32 -66 50 14 17 55
18 98 3 28 -10 34 -9 46 7 8 11 15 24 15 31 0 18 -57 33 -127 33 -58 0 -68 -3
-94 -29z"/>
<path d="M4885 1170 c-100 -41 -114 -216 -24 -283 38 -28 134 -33 179 -10 55
28 80 75 80 147 0 74 -25 121 -75 142 -37 15 -128 18 -160 4z m134 -76 c23
-29 29 -101 11 -133 -26 -49 -103 -46 -136 4 -23 35 -14 113 16 137 34 27 84
23 109 -8z"/>
<path d="M5200 1025 l0 -155 35 0 35 0 0 90 c0 50 3 90 8 90 4 0 32 -41 62
-90 l55 -90 43 0 42 0 0 155 0 155 -40 0 -39 0 -3 -95 -3 -96 -59 96 c-58 93
-60 95 -97 95 l-39 0 0 -155z"/>
<path d="M5619 1157 c-98 -65 -90 -231 14 -278 50 -22 105 -24 150 -5 50 21
70 50 75 111 l4 55 -76 0 c-74 0 -76 -1 -76 -25 0 -22 4 -25 35 -25 28 0 35
-4 35 -19 0 -27 -27 -45 -67 -45 -84 0 -115 127 -44 181 25 19 85 15 113 -7
l25 -19 23 24 c26 28 22 37 -24 59 -52 25 -145 21 -187 -7z"/>
<path d="M5940 1026 l0 -156 40 0 c39 0 40 0 40 38 1 37 27 82 49 82 6 0 24
-27 41 -60 29 -58 32 -60 70 -60 38 0 39 1 30 24 -22 58 -61 126 -81 139 -23
17 -29 6 75 125 l19 22 -45 0 c-45 0 -48 -2 -100 -67 l-53 -67 -5 64 -5 65
-37 3 -38 3 0 -155z"/>
<path d="M6290 1025 l0 -155 115 0 115 0 0 30 0 30 -75 0 -75 0 0 125 0 125
-40 0 -40 0 0 -155z"/>
<path d="M6673 1128 c-12 -29 -39 -99 -61 -155 l-40 -103 43 0 c39 0 44 3 54
30 9 28 13 30 65 30 51 0 55 -2 65 -30 9 -27 14 -30 50 -30 23 0 41 3 41 8 0
4 -26 72 -58 152 l-58 145 -40 3 c-41 3 -41 3 -61 -50z m91 -115 c7 -21 4 -23
-28 -23 -41 0 -41 0 -19 65 l16 49 12 -34 c7 -19 15 -45 19 -57z"/>
<path d="M6102 663 c-30 -6 -56 -46 -47 -74 4 -13 28 -31 61 -46 30 -13 54
-29 54 -34 0 -19 -32 -21 -70 -6 -34 13 -39 13 -44 0 -10 -25 -7 -31 25 -42
63 -22 118 -10 139 30 19 34 2 59 -56 85 -67 29 -71 49 -10 42 41 -5 66 4 66
24 0 4 -17 12 -37 17 -39 11 -42 11 -81 4z"/>
<path d="M4480 584 c0 -71 2 -77 30 -106 28 -28 36 -30 78 -25 68 7 82 30 82
128 0 78 0 79 -25 79 -24 0 -25 -2 -25 -69 0 -70 -14 -101 -44 -101 -26 0 -36
26 -36 97 l0 73 -30 0 -30 0 0 -76z"/>
<path d="M4780 560 c0 -99 0 -100 25 -100 22 0 24 4 27 57 l3 58 35 -58 c28
-47 39 -57 62 -57 l28 0 0 100 0 100 -25 0 c-24 0 -25 -3 -25 -62 l0 -63 -40
63 c-32 49 -46 62 -65 62 -25 0 -25 0 -25 -100z"/>
<path d="M5070 560 l0 -100 25 0 25 0 0 100 0 100 -25 0 -25 0 0 -100z"/>
<path d="M5221 648 c0 -7 15 -51 33 -98 31 -78 35 -85 63 -88 29 -3 31 -1 66
92 21 53 37 98 37 102 0 3 -12 4 -27 2 -23 -3 -29 -12 -47 -65 -12 -34 -24
-64 -27 -67 -3 -3 -15 26 -28 64 -19 61 -25 70 -47 70 -13 0 -24 -6 -23 -12z"/>
<path d="M5510 560 l0 -100 85 0 c69 0 85 3 85 15 0 12 -13 15 -55 15 -52 0
-55 1 -55 25 0 23 4 25 40 25 33 0 40 3 40 20 0 17 -7 20 -40 20 -33 0 -40 3
-40 20 0 18 7 20 55 20 48 0 55 2 55 20 0 18 -7 20 -85 20 l-85 0 0 -100z"/>
<path d="M5780 560 l0 -100 25 0 c21 0 25 5 25 29 0 17 5 33 10 36 20 13 51
-7 57 -36 4 -24 11 -29 34 -29 26 0 27 2 19 31 -5 17 -17 37 -27 45 -17 12
-17 13 -1 14 18 0 38 28 38 54 0 9 -9 25 -20 36 -16 16 -33 20 -90 20 l-70 0
0 -100z m123 48 c8 -25 -6 -38 -39 -38 -30 0 -34 3 -34 25 0 22 4 25 34 25 19
0 36 -6 39 -12z"/>
<path d="M6320 560 l0 -100 30 0 30 0 0 100 0 100 -30 0 -30 0 0 -100z"/>
<path d="M6470 640 c0 -16 7 -20 30 -20 l30 0 0 -80 c0 -79 0 -80 25 -80 25 0
25 1 25 80 l0 80 30 0 c23 0 30 4 30 20 0 18 -7 20 -85 20 -78 0 -85 -2 -85
-20z"/>
<path d="M6740 587 c22 -41 40 -86 40 -100 0 -22 5 -27 25 -27 21 0 25 5 25
30 0 16 16 58 35 93 19 35 35 67 35 70 0 4 -11 7 -25 7 -21 0 -29 -9 -45 -46
-11 -25 -24 -43 -28 -40 -5 3 -17 23 -27 46 -15 33 -23 40 -47 40 l-29 0 41
-73z"/>
</g>
</svg>
